<?xml version="1.0" encoding="UTF-8" standalone="no"?>
<svg width="840px" height="600px" viewBox="0 0 840 600" version="1.1" xmlns="http://www.w3.org/2000/svg" xmlns:xlink="http://www.w3.org/1999/xlink">
    <!-- Generator: Sketch 39.1 (31720) - http://www.bohemiancoding.com/sketch -->
    <title>us-united-states-of-america-flag</title>
    <desc>Created with Sketch.</desc>
    <defs>
        <rect id="path-1" x="0" y="0" width="840" height="600" rx="60"></rect>
    </defs>
    <g id="Working" stroke="none" stroke-width="1" fill="none" fill-rule="evenodd">
        <g id="GoPro-EMEA_APAC-Flags" transform="translate(-100.000000, -5700.000000)">
            <g id="us-united-states-of-america-flag" transform="translate(100.000000, 5700.000000)">
                <mask id="mask-2" fill="white">
                    <use xlink:href="#path-1"></use>
                </mask>
                <g id="CC-BG-Copy-14"></g>
                <g mask="url(#mask-2)">
                    <g transform="translate(-10.000000, 0.000000)">
                        <polygon id="Fill-1" fill="#FFFFFF" points="0 600 1140 600 1140 0.398734177 0 0.398734177"></polygon>
                        <polygon id="Fill-2" fill="#A02635" points="0 46.5227848 1140 46.5227848 1140 0.398734177 0 0.398734177"></polygon>
                        <polygon id="Fill-3" fill="#A02635" points="0 138.767089 1140 138.767089 1140 92.643038 0 92.643038"></polygon>
                        <polygon id="Fill-4" fill="#A02635" points="0 231.01519 1140 231.01519 1140 184.891139 0 184.891139"></polygon>
                        <polygon id="Fill-5" fill="#A02635" points="0 323.259494 1140 323.259494 1140 277.135443 0 277.135443"></polygon>
                        <polygon id="Fill-6" fill="#A02635" points="0 415.503797 1140 415.503797 1140 369.383544 0 369.383544"></polygon>
                        <polygon id="Fill-7" fill="#A02635" points="0 507.751899 1140 507.751899 1140 461.627848 0 461.627848"></polygon>
                        <polygon id="Fill-8" fill="#A02635" points="0 600 1140 600 1140 553.875949 0 553.875949"></polygon>
                        <polygon id="Fill-9" fill="#36355B" points="0 323.259494 456 323.259494 456 0.398734177 0 0.398734177"></polygon>
                        <polyline id="Fill-10" fill="#FFFFFF" points="21.4244 26.6088608 32.2848 34.4962025 28.139 47.2556962 38.9994 39.3721519 49.8636 47.2556962 45.714 34.4962025 56.5744 26.6088608 43.149 26.6088608 38.9994 13.8493671 34.8498 26.6088608 21.4244 26.6088608"></polyline>
                        <polyline id="Fill-11" fill="#FFFFFF" points="97.0254 26.6088608 107.8858 34.4962025 103.7362 47.2556962 114.6004 39.3721519 125.4608 47.2556962 121.3112 34.4962025 132.1754 26.6088608 118.75 26.6088608 114.6004 13.8493671 110.4508 26.6088608 97.0254 26.6088608"></polyline>
                        <polyline id="Fill-12" fill="#FFFFFF" points="172.6226 26.6088608 183.4868 34.4962025 179.3372 47.2556962 190.2014 39.3721519 201.0618 47.2556962 196.9122 34.4962025 207.7764 26.6088608 194.3472 26.6088608 190.1976 13.8493671 186.0518 26.6088608 172.6226 26.6088608"></polyline>
                        <polyline id="Fill-13" fill="#FFFFFF" points="248.2236 26.6088608 259.0878 34.4962025 254.9382 47.2556962 265.7986 39.3721519 276.6628 47.2556962 272.5132 34.4962025 283.3736 26.6088608 269.9482 26.6088608 265.7986 13.8493671 261.649 26.6088608 248.2236 26.6088608"></polyline>
                        <polyline id="Fill-14" fill="#FFFFFF" points="323.8246 26.6088608 334.685 34.4962025 330.5354 47.2556962 341.3996 39.3721519 352.26 47.2556962 348.1142 34.4962025 358.9746 26.6088608 345.5492 26.6088608 341.3996 13.8493671 337.25 26.6088608 323.8246 26.6088608"></polyline>
                        <polyline id="Fill-15" fill="#FFFFFF" points="399.4218 26.6088608 410.286 34.4962025 406.1364 47.2556962 417.0006 39.3721519 427.861 47.2556962 423.7114 34.4962025 434.5756 26.6088608 421.1464 26.6088608 417.0006 13.8493671 412.851 26.6088608 399.4218 26.6088608"></polyline>
                        <polyline id="Fill-16" fill="#FFFFFF" points="59.223 58.9898734 70.0872 66.8734177 65.9376 79.6367089 76.798 71.7493671 87.6622 79.6367089 83.5126 66.8734177 94.373 58.9898734 80.9476 58.9898734 76.798 46.2265823 72.6484 58.9898734 59.223 58.9898734"></polyline>
                        <polyline id="Fill-17" fill="#FFFFFF" points="134.824 58.9898734 145.6844 66.8734177 141.5386 79.6367089 152.399 71.7493671 163.2632 79.6367089 159.1136 66.8734177 169.974 58.9898734 156.5486 58.9898734 152.399 46.2265823 148.2494 58.9898734 134.824 58.9898734"></polyline>
                        <polyline id="Fill-18" fill="#FFFFFF" points="210.425 58.9898734 221.2854 66.8734177 217.1358 79.6367089 228 71.7493671 238.8604 79.6367089 234.7146 66.8734177 245.575 58.9898734 232.1496 58.9898734 228 46.2265823 223.8504 58.9898734 210.425 58.9898734"></polyline>
                        <polyline id="Fill-19" fill="#FFFFFF" points="286.0222 58.9898734 296.8864 66.8734177 292.7368 79.6367089 303.5972 71.7493671 314.4614 79.6367089 310.3118 66.8734177 321.176 58.9898734 307.7468 58.9898734 303.5972 46.2265823 299.4514 58.9898734 286.0222 58.9898734"></polyline>
                        <polyline id="Fill-20" fill="#FFFFFF" points="361.6232 58.9898734 372.4836 66.8734177 368.3378 79.6367089 379.1982 71.7493671 390.0624 79.6367089 385.9128 66.8734177 396.7732 58.9898734 383.3478 58.9898734 379.1982 46.2265823 375.0486 58.9898734 361.6232 58.9898734"></polyline>
                        <polyline id="Fill-21" fill="#FFFFFF" points="21.4244 91.3670886 32.2848 99.2544304 28.139 112.013924 38.9994 104.13038 49.8636 112.013924 45.714 99.2544304 56.5744 91.3670886 43.149 91.3670886 38.9994 78.6037975 34.8498 91.3670886 21.4244 91.3670886"></polyline>
                        <polyline id="Fill-22" fill="#FFFFFF" points="97.0254 91.3670886 107.8858 99.2544304 103.7362 112.013924 114.6004 104.13038 125.4608 112.013924 121.3112 99.2544304 132.1754 91.3670886 118.75 91.3670886 114.6004 78.6037975 110.4508 91.3670886 97.0254 91.3670886"></polyline>
                        <polyline id="Fill-23" fill="#FFFFFF" points="172.6226 91.3670886 183.4868 99.2544304 179.3372 112.013924 190.2014 104.13038 201.0618 112.013924 196.9122 99.2544304 207.7764 91.3670886 194.3472 91.3670886 190.1976 78.6037975 186.0518 91.3670886 172.6226 91.3670886"></polyline>
                        <polyline id="Fill-24" fill="#FFFFFF" points="248.2236 91.3670886 259.0878 99.2544304 254.9382 112.013924 265.7986 104.13038 276.6628 112.013924 272.5132 99.2544304 283.3736 91.3670886 269.9482 91.3670886 265.7986 78.6037975 261.649 91.3670886 248.2236 91.3670886"></polyline>
                        <polyline id="Fill-25" fill="#FFFFFF" points="323.8246 91.3670886 334.685 99.2544304 330.5354 112.013924 341.3996 104.13038 352.26 112.013924 348.1142 99.2544304 358.9746 91.3670886 345.5492 91.3670886 341.3996 78.6037975 337.25 91.3670886 323.8246 91.3670886"></polyline>
                        <polyline id="Fill-26" fill="#FFFFFF" points="399.4218 91.3670886 410.286 99.2544304 406.1364 112.013924 417.0006 104.13038 427.861 112.013924 423.7114 99.2544304 434.5756 91.3670886 421.1464 91.3670886 417.0006 78.6037975 412.851 91.3670886 399.4218 91.3670886"></polyline>
                        <polyline id="Fill-27" fill="#FFFFFF" points="60.1578 123.850633 71.0182 131.737975 66.8686 144.501266 77.7328 136.613924 88.5932 144.501266 84.4436 131.737975 95.3078 123.850633 81.8824 123.850633 77.7328 111.091139 73.5832 123.850633 60.1578 123.850633"></polyline>
                        <polyline id="Fill-28" fill="#FFFFFF" points="135.755 123.850633 146.6192 131.737975 142.4696 144.501266 153.3338 136.613924 164.1942 144.501266 160.0446 131.737975 170.9088 123.850633 157.4796 123.850633 153.33 111.091139 149.1842 123.850633 135.755 123.850633"></polyline>
                        <polyline id="Fill-29" fill="#FFFFFF" points="211.356 123.850633 222.2202 131.737975 218.0706 144.501266 228.931 136.613924 239.7952 144.501266 235.6456 131.737975 246.506 123.850633 233.0806 123.850633 228.931 111.091139 224.7814 123.850633 211.356 123.850633"></polyline>
                        <polyline id="Fill-30" fill="#FFFFFF" points="286.957 123.850633 297.8174 131.737975 293.6678 144.501266 304.532 136.613924 315.3924 144.501266 311.2466 131.737975 322.107 123.850633 308.6816 123.850633 304.532 111.091139 300.3824 123.850633 286.957 123.850633"></polyline>
                        <polyline id="Fill-31" fill="#FFFFFF" points="362.558 123.850633 373.4184 131.737975 369.2688 144.501266 380.133 136.613924 390.9934 144.501266 386.8438 131.737975 397.708 123.850633 384.2788 123.850633 380.133 111.091139 375.9834 123.850633 362.558 123.850633"></polyline>
                        <polyline id="Fill-32" fill="#FFFFFF" points="22.572 155.958228 33.4324 163.84557 29.2828 176.608861 40.147 168.721519 51.0112 176.608861 46.8616 163.84557 57.722 155.958228 44.2966 155.958228 40.147 143.198734 35.9974 155.958228 22.572 155.958228"></polyline>
                        <polyline id="Fill-33" fill="#FFFFFF" points="98.1692 155.958228 109.0334 163.84557 104.8838 176.608861 115.748 168.721519 126.6084 176.608861 122.4588 163.84557 133.323 155.958228 119.8938 155.958228 115.748 143.198734 111.5984 155.958228 98.1692 155.958228"></polyline>
                        <polyline id="Fill-34" fill="#FFFFFF" points="173.7702 155.958228 184.6344 163.84557 180.4848 176.608861 191.3452 168.721519 202.2094 176.608861 198.0598 163.84557 208.9202 155.958228 195.4948 155.958228 191.3452 143.198734 187.1956 155.958228 173.7702 155.958228"></polyline>
                        <polyline id="Fill-35" fill="#FFFFFF" points="249.3712 155.958228 260.2354 163.84557 256.0858 176.608861 266.9462 168.721519 277.8104 176.608861 273.6608 163.84557 284.5212 155.958228 271.0958 155.958228 266.9462 143.198734 262.7966 155.958228 249.3712 155.958228"></polyline>
                        <polyline id="Fill-36" fill="#FFFFFF" points="324.9722 155.958228 335.8326 163.84557 331.683 176.608861 342.5472 168.721519 353.4076 176.608861 349.258 163.84557 360.1222 155.958228 346.6968 155.958228 342.5472 143.198734 338.3976 155.958228 324.9722 155.958228"></polyline>
                        <polyline id="Fill-37" fill="#FFFFFF" points="400.5694 155.958228 411.4336 163.84557 407.284 176.608861 418.1444 168.721519 429.0086 176.608861 424.859 163.84557 435.7232 155.958228 422.294 155.958228 418.1444 143.198734 413.9986 155.958228 400.5694 155.958228"></polyline>
                        <polyline id="Fill-38" fill="#FFFFFF" points="23.2788 219.691139 34.143 227.578481 29.9934 240.337975 40.8538 232.45443 51.718 240.337975 47.5684 227.578481 58.4288 219.691139 45.0034 219.691139 40.8538 206.931646 36.708 219.691139 23.2788 219.691139"></polyline>
                        <polyline id="Fill-39" fill="#FFFFFF" points="98.8798 219.691139 109.7402 227.578481 105.5906 240.337975 116.4548 232.45443 127.319 240.337975 123.1694 227.578481 134.0298 219.691139 120.6044 219.691139 116.4548 206.931646 112.3052 219.691139 98.8798 219.691139"></polyline>
                        <polyline id="Fill-40" fill="#FFFFFF" points="174.4808 219.691139 185.3412 227.578481 181.1916 240.337975 192.0558 232.45443 202.9162 240.337975 198.7666 227.578481 209.6308 219.691139 196.2054 219.691139 192.0558 206.931646 187.9062 219.691139 174.4808 219.691139"></polyline>
                        <polyline id="Fill-41" fill="#FFFFFF" points="250.078 219.691139 260.9422 227.578481 256.7926 240.337975 267.6568 232.45443 278.5172 240.337975 274.3676 227.578481 285.2318 219.691139 271.8026 219.691139 267.6568 206.931646 263.5072 219.691139 250.078 219.691139"></polyline>
                        <polyline id="Fill-42" fill="#FFFFFF" points="325.679 219.691139 336.5394 227.578481 332.3936 240.337975 343.254 232.45443 354.1182 240.337975 349.9686 227.578481 360.829 219.691139 347.4036 219.691139 343.254 206.931646 339.1044 219.691139 325.679 219.691139"></polyline>
                        <polyline id="Fill-43" fill="#FFFFFF" points="401.28 219.691139 412.1404 227.578481 407.9908 240.337975 418.855 232.45443 429.7154 240.337975 425.5696 227.578481 436.43 219.691139 423.0046 219.691139 418.855 206.931646 414.7054 219.691139 401.28 219.691139"></polyline>
                        <polyline id="Fill-44" fill="#FFFFFF" points="22.3554 284.172152 33.2196 292.059494 29.07 304.822785 39.9304 296.935443 50.7946 304.822785 46.645 292.059494 57.5054 284.172152 44.08 284.172152 39.9304 271.412658 35.7808 284.172152 22.3554 284.172152"></polyline>
                        <polyline id="Fill-45" fill="#FFFFFF" points="97.9564 284.172152 108.8168 292.059494 104.6672 304.822785 115.5314 296.935443 126.3956 304.822785 122.246 292.059494 133.1064 284.172152 119.681 284.172152 115.5314 271.412658 111.3818 284.172152 97.9564 284.172152"></polyline>
                        <polyline id="Fill-46" fill="#FFFFFF" points="173.5574 284.172152 184.4178 292.059494 180.2682 304.822785 191.1324 296.935443 201.9928 304.822785 197.8432 292.059494 208.7074 284.172152 195.282 284.172152 191.1324 271.412658 186.9828 284.172152 173.5574 284.172152"></polyline>
                        <polyline id="Fill-47" fill="#FFFFFF" points="249.1546 284.172152 260.0188 292.059494 255.8692 304.822785 266.7334 296.935443 277.5938 304.822785 273.4442 292.059494 284.3084 284.172152 270.8792 284.172152 266.7334 271.412658 262.5838 284.172152 249.1546 284.172152"></polyline>
                        <polyline id="Fill-48" fill="#FFFFFF" points="324.7556 284.172152 335.616 292.059494 331.4702 304.822785 342.3306 296.935443 353.1948 304.822785 349.0452 292.059494 359.9056 284.172152 346.4802 284.172152 342.3306 271.412658 338.181 284.172152 324.7556 284.172152"></polyline>
                        <polyline id="Fill-49" fill="#FFFFFF" points="400.3566 284.172152 411.217 292.059494 407.0674 304.822785 417.9316 296.935443 428.792 304.822785 424.6424 292.059494 435.5066 284.172152 422.0812 284.172152 417.9316 271.412658 413.782 284.172152 400.3566 284.172152"></polyline>
                        <polyline id="Fill-50" fill="#FFFFFF" points="60.382 187.507595 71.2424 195.391139 67.0928 208.15443 77.957 200.267089 88.8174 208.15443 84.6716 195.391139 95.532 187.507595 82.1066 187.507595 77.957 174.744304 73.8074 187.507595 60.382 187.507595"></polyline>
                        <polyline id="Fill-51" fill="#FFFFFF" points="135.9792 187.507595 146.8434 195.391139 142.6938 208.15443 153.558 200.267089 164.4184 208.15443 160.2688 195.391139 171.133 187.507595 157.7038 187.507595 153.558 174.744304 149.4084 187.507595 135.9792 187.507595"></polyline>
                        <polyline id="Fill-52" fill="#FFFFFF" points="211.5802 187.507595 222.4444 195.391139 218.2948 208.15443 229.1552 200.267089 240.0194 208.15443 235.8698 195.391139 246.734 187.507595 233.3048 187.507595 229.1552 174.744304 225.0094 187.507595 211.5802 187.507595"></polyline>
                        <polyline id="Fill-53" fill="#FFFFFF" points="287.1812 187.507595 298.0416 195.391139 293.892 208.15443 304.7562 200.267089 315.6166 208.15443 311.4708 195.391139 322.3312 187.507595 308.9058 187.507595 304.7562 174.744304 300.6066 187.507595 287.1812 187.507595"></polyline>
                        <polyline id="Fill-54" fill="#FFFFFF" points="362.7784 187.507595 373.6426 195.391139 369.493 208.15443 380.3572 200.267089 391.2176 208.15443 387.068 195.391139 397.9322 187.507595 384.5068 187.507595 380.3572 174.744304 376.2076 187.507595 362.7784 187.507595"></polyline>
                        <polyline id="Fill-55" fill="#FFFFFF" points="60.1578 251.886076 71.0182 259.773418 66.8686 272.532911 77.7328 264.649367 88.5932 272.532911 84.4474 259.773418 95.3078 251.886076 81.8824 251.886076 77.7328 239.126582 73.5832 251.886076 60.1578 251.886076"></polyline>
                        <polyline id="Fill-56" fill="#FFFFFF" points="135.7588 251.886076 146.6192 259.773418 142.4696 272.532911 153.3338 264.649367 164.1942 272.532911 160.0446 259.773418 170.9088 251.886076 157.4834 251.886076 153.3338 239.126582 149.1842 251.886076 135.7588 251.886076"></polyline>
                        <polyline id="Fill-57" fill="#FFFFFF" points="211.356 251.886076 222.2202 259.773418 218.0706 272.532911 228.9348 264.649367 239.7952 272.532911 235.6456 259.773418 246.5098 251.886076 233.0806 251.886076 228.931 239.126582 224.7852 251.886076 211.356 251.886076"></polyline>
                        <polyline id="Fill-58" fill="#FFFFFF" points="286.957 251.886076 297.8174 259.773418 293.6716 272.532911 304.532 264.649367 315.3962 272.532911 311.2466 259.773418 322.107 251.886076 308.6816 251.886076 304.532 239.126582 300.3824 251.886076 286.957 251.886076"></polyline>
                        <polyline id="Fill-59" fill="#FFFFFF" points="362.558 251.886076 373.4184 259.773418 369.2688 272.532911 380.133 264.649367 390.9934 272.532911 386.8438 259.773418 397.708 251.886076 384.2826 251.886076 380.133 239.126582 375.9834 251.886076 362.558 251.886076"></polyline>
                    </g>
                </g>
            </g>
        </g>
    </g>
</svg>